<svg viewBox="0 0 600 520" xmlns="http://www.w3.org/2000/svg">
  <defs>
    <linearGradient id="ihg1" x1="0" y1="0" x2="1" y2="1">
      <stop offset="0%" stop-color="#7c3aed"/>
      <stop offset="100%" stop-color="#ec4899"/>
    </linearGradient>
    <linearGradient id="ihg2" x1="0" y1="0" x2="1" y2="1">
      <stop offset="0%" stop-color="#a855f7"/>
      <stop offset="100%" stop-color="#f472b6"/>
    </linearGradient>
    <linearGradient id="ihg3" x1="0" y1="0" x2="0" y2="1">
      <stop offset="0%" stop-color="#fbbf24"/>
      <stop offset="100%" stop-color="#f59e0b"/>
    </linearGradient>
  </defs>

  <!-- blobs de fond -->
  <circle cx="470" cy="90" r="70" fill="url(#ihg1)" opacity="0.12"/>
  <circle cx="60" cy="440" r="90" fill="url(#ihg2)" opacity="0.10"/>

  <!-- carte "aperçu de site" flottante -->
  <g transform="translate(60,60)">
    <rect x="0" y="0" width="340" height="230" rx="18" fill="#ffffff" opacity="0.06" stroke="rgba(255,255,255,0.18)" stroke-width="1.5"/>
    <rect x="16" y="16" width="60" height="10" rx="5" fill="url(#ihg1)"/>
    <rect x="16" y="42" width="308" height="14" rx="7" fill="rgba(255,255,255,0.85)"/>
    <rect x="16" y="64" width="220" height="8" rx="4" fill="rgba(255,255,255,0.35)"/>
    <rect x="16" y="86" width="110" height="24" rx="12" fill="url(#ihg2)"/>
    <rect x="16" y="130" width="94" height="72" rx="10" fill="rgba(255,255,255,0.10)"/>
    <rect x="123" y="130" width="94" height="72" rx="10" fill="rgba(255,255,255,0.10)"/>
    <rect x="230" y="130" width="94" height="72" rx="10" fill="rgba(255,255,255,0.10)"/>
  </g>

  <!-- badge "48h" -->
  <g transform="translate(360,270)">
    <rect x="0" y="0" width="150" height="70" rx="18" fill="#ffffff"/>
    <circle cx="30" cy="35" r="16" fill="url(#ihg3)"/>
    <path d="M30 27v9l6 5" stroke="#fff" stroke-width="2.5" stroke-linecap="round" fill="none"/>
    <rect x="56" y="20" width="80" height="10" rx="5" fill="#0a0a0f" opacity="0.8"/>
    <rect x="56" y="38" width="60" height="8" rx="4" fill="#94a3b8"/>
  </g>

  <!-- badge "0 euro" -->
  <g transform="translate(30,320)">
    <rect x="0" y="0" width="170" height="70" rx="18" fill="#ffffff"/>
    <circle cx="32" cy="35" r="16" fill="#34d399"/>
    <path d="M25 35l6 6 12-13" stroke="#fff" stroke-width="2.5" stroke-linecap="round" stroke-linejoin="round" fill="none"/>
    <rect x="58" y="20" width="95" height="10" rx="5" fill="#0a0a0f" opacity="0.8"/>
    <rect x="58" y="38" width="70" height="8" rx="4" fill="#94a3b8"/>
  </g>

  <!-- étoiles satisfaction -->
  <g transform="translate(430,410)" fill="#fbbf24">
    <path d="M8 0l2.35 4.76 5.25.76-3.8 3.7.9 5.24L8 11.9l-4.7 2.56.9-5.24-3.8-3.7 5.25-.76z"/>
    <path d="M28 -4l1.65 3.34L33 -0.14l-2.66 2.6.63 3.68L28 4.35l-3 1.57.6-3.66-2.65-2.6 3.36-.5z"/>
  </g>
</svg>
